<svg xmlns="http://www.w3.org/2000/svg" width="256" height="256" viewBox="0 0 100 100"><rect width="100" height="100" rx="0" fill="#000000"></rect><path d="M25.06 20.78L39.30 16.95Q39.65 16.87 39.65 16.87L39.65 16.87L40.05 16.87Q40.79 16.87 41.50 17.37Q42.20 17.88 42.90 19.11L42.90 19.11Q43.39 19.99 44.29 21.70Q45.19 23.41 46.24 25.39Q47.30 27.37 48.35 29.37Q49.41 31.37 50.20 32.82L50.20 32.82L57.49 20.25L74.90 16.73Q75.11 16.69 75.31 16.67Q75.51 16.65 75.73 16.65L75.73 16.65Q76.70 16.65 76.70 17.39L76.70 17.39Q76.70 17.66 76.59 18.07Q76.48 18.49 76.21 18.97L76.21 18.97L68.26 33.17L65.10 38.57Q63.69 40.95 62.08 43.67Q60.48 46.40 59.07 48.81L59.07 48.81Q59.87 50.13 60.55 51.36Q61.23 52.59 61.78 53.60Q62.33 54.61 62.70 55.36Q63.07 56.11 63.29 56.50L63.29 56.50L73.97 76.76L73.84 78.39Q73.84 78.52 73.27 78.89Q72.70 79.27 71.75 79.75Q70.81 80.23 69.60 80.76Q68.39 81.29 67.07 81.73L67.07 81.73L63.95 82.78Q63.38 82.78 62.70 83.07Q62.02 83.35 61.27 83.35L61.27 83.35Q60.66 83.35 60.11 83.07Q59.56 82.78 58.99 81.90L58.99 81.90Q57.98 80.45 56.75 78.48Q55.52 76.50 54.11 73.95L54.11 73.95L49.27 65.42L42.33 77.16L40.97 78.48Q40.93 78.61 40.18 78.89Q39.43 79.18 38.22 79.60Q37.01 80.01 35.52 80.50Q34.03 80.98 32.55 81.42Q31.08 81.86 29.72 82.23Q28.36 82.61 27.48 82.83L27.48 82.83Q26.95 82.83 25.96 83.09Q24.97 83.35 24.23 83.35L24.23 83.35Q23.83 83.35 23.57 83.20Q23.30 83.05 23.30 82.70L23.30 82.70Q23.30 82.30 23.70 81.33Q24.09 80.37 24.75 79.07Q25.41 77.77 26.23 76.24Q27.04 74.70 27.87 73.16Q28.71 71.62 29.50 70.21Q30.29 68.81 30.86 67.75L30.86 67.75Q33.02 63.62 35.48 59.18L35.48 59.18L40.44 50.22L25.15 22.93Q24.71 22.18 24.71 21.39L24.71 21.39Q24.71 20.91 25.06 20.78L25.06 20.78Z" fill="#ff0000"></path></svg>